<svg xmlns="http://www.w3.org/2000/svg" width="177" height="121" viewBox="0 0 177 121" fill="none">
  <path opacity="0.1" d="M-4.27344 -15.605V14.5258M-4.27344 225.441V171.83M-4.27344 104.918L57.321 165.18M-4.27344 104.918V135.912M-4.27344 104.918H26.9495M-4.27344 104.918L26.3941 77.485M-4.27344 104.918V44.6565M118.71 104.918H176.374H150.538M118.71 104.918L118.915 136.954M118.71 104.918L150.538 136.954M118.71 104.918L147.645 79.5703M118.71 104.918L118.915 77.485M118.915 225.441V136.954M118.915 225.441L57.321 165.18M118.915 225.441V196.173M58.1725 104.918L88.544 135.912M58.1725 104.918L57.321 165.18M58.1725 104.918H26.9495M58.1725 104.918L86.8208 77.485M58.1725 104.918H86.8814M171.792 220.865L148.183 196.773M118.915 166.906L88.544 135.912M118.915 166.906V136.954M118.915 166.906L148.183 196.773M118.915 166.906V196.173M176.374 161.424L150.538 136.954M-4.27344 171.83L26.3941 201.753M-4.27344 171.83V166.906V135.912M-4.27344 171.83L57.321 165.18M50.6709 225.441L26.3941 201.753M26.3941 201.753V225.441M26.3941 201.753L86.8814 196.773L88.544 135.912M88.544 135.912L118.915 136.954M-4.27344 135.912H26.3941L26.9495 104.918M150.538 136.954L148.183 196.773M150.538 136.954H176.374M148.183 196.773L118.915 196.173M147.645 79.5703L176.374 52.1373L175.522 53.0422M147.645 79.5703L118.915 77.485M147.645 79.5703L150.538 104.918M147.645 79.5703L175.522 53.0422M118.915 77.485V52.1373V46.752M150.538 104.918H86.8814M118.915 46.752L152.652 13.9133M118.915 46.752L171.792 -6.04898L152.652 13.9133M118.915 46.752L86.8208 77.485M118.915 46.752V15.5735M118.915 46.752L57.9858 45.6992M118.915 46.752H176.374L175.522 53.0422M152.652 13.9133V-15.605M152.652 13.9133H176.374M86.8208 77.485L86.8814 104.918M86.8208 77.485H26.3941M26.3941 77.485L57.9858 45.6992M26.3941 77.485L25.4898 14.7282M89.5774 13.9133L118.915 -15.605V15.5735M89.5774 13.9133L118.915 15.5735M89.5774 13.9133L57.9858 45.6992M89.5774 13.9133V-15.605M57.9858 45.6992L55.253 -15.2001L25.4898 14.7282M-4.27344 44.6565V14.5258M-4.27344 44.6565L25.4898 14.7282M-4.27344 14.5258L25.4898 14.7282" stroke="#FBFBFC" stroke-width="0.917949"/>
</svg>