<svg width="358" height="144" viewBox="0 0 358 144" fill="none" xmlns="http://www.w3.org/2000/svg">
<g clip-path="url(#clip0_2896_48910)">
<g opacity="0.68">
<g opacity="0.68">
<path d="M178.992 142.376C217.749 142.376 249.168 110.957 249.168 72.2001C249.168 33.4432 217.749 2.02448 178.992 2.02448C140.236 2.02448 108.817 33.4432 108.817 72.2001C108.817 110.957 140.236 142.376 178.992 142.376Z" stroke="#EBEEEA" stroke-width="2.09034" stroke-miterlimit="10"/>
</g>
<path d="M188.578 73.0213C191.361 70.9988 193.431 68.1475 194.493 64.8759C195.556 61.6044 195.555 58.0805 194.492 54.8093C193.428 51.5381 191.357 48.6875 188.574 46.6659C185.791 44.6442 182.44 43.5554 179 43.5554C175.56 43.5554 172.209 44.6442 169.426 46.6659C166.643 48.6875 164.572 51.5381 163.508 54.8093C162.445 58.0805 162.444 61.6044 163.507 64.8759C164.569 68.1475 166.64 70.9988 169.422 73.0213C163.483 74.9433 158.248 78.5865 154.383 83.4885C150.518 88.3905 148.196 94.3302 147.712 100.554C147.696 100.94 147.758 101.326 147.895 101.688C148.032 102.05 148.241 102.38 148.508 102.659C148.776 102.938 149.098 103.16 149.454 103.311C149.809 103.463 150.192 103.541 150.579 103.54H207.421C207.808 103.541 208.191 103.463 208.547 103.311C208.902 103.16 209.224 102.938 209.492 102.659C209.76 102.38 209.968 102.05 210.105 101.688C210.242 101.326 210.304 100.94 210.288 100.554C209.81 94.3284 207.49 88.3859 203.624 83.4828C199.758 78.5798 194.521 74.9381 188.578 73.0213ZM208.436 101.674C208.307 101.813 208.15 101.923 207.975 101.998C207.8 102.073 207.611 102.11 207.421 102.107H150.579C150.389 102.107 150.201 102.069 150.027 101.994C149.852 101.92 149.695 101.811 149.564 101.674C149.438 101.538 149.341 101.378 149.28 101.203C149.218 101.029 149.193 100.843 149.205 100.659C149.685 94.5241 152.037 88.685 155.944 83.9315C159.851 79.1779 165.124 75.7394 171.049 74.0814C173.475 75.4513 176.214 76.1711 179 76.1711C181.786 76.1711 184.525 75.4513 186.951 74.0814C192.88 75.7337 198.156 79.1705 202.064 83.9252C205.972 88.6799 208.322 94.5221 208.795 100.659C208.807 100.843 208.782 101.029 208.721 101.203C208.659 101.378 208.562 101.538 208.436 101.674ZM193.789 59.8671C193.787 62.3995 193.133 64.8886 191.891 67.0955C190.649 69.3024 188.86 71.1527 186.697 72.4688C186.398 72.648 186.1 72.8272 185.786 72.9914C185.473 73.1557 185.07 73.3498 184.696 73.4991C182.893 74.2576 180.956 74.6482 179 74.6482C177.044 74.6482 175.107 74.2576 173.304 73.4991C172.937 73.348 172.578 73.1785 172.229 72.9914L171.303 72.4688C169.1 71.1235 167.288 69.2249 166.047 66.9618C164.806 64.6987 164.179 62.1501 164.229 59.5695C164.278 56.9889 165.003 54.4662 166.33 52.2525C167.657 50.0389 169.541 48.2113 171.794 46.9518C174.047 45.6922 176.59 45.0445 179.171 45.0731C181.752 45.1017 184.281 45.8056 186.505 47.1147C188.73 48.4239 190.572 50.2928 191.85 52.5353C193.128 54.7778 193.797 57.3159 193.789 59.897V59.8671Z" fill="#EBEEEA"/>
</g>
<path opacity="0.68" d="M0 84.6971H108.817" stroke="#EBEEEA" stroke-width="1.4931" stroke-miterlimit="10"/>
<path opacity="0.68" d="M249.168 84.6971H358" stroke="#EBEEEA" stroke-width="1.4931" stroke-miterlimit="10"/>
</g>
<defs>
<clipPath id="clip0_2896_48910">
<rect width="358" height="142.441" fill="white" transform="translate(0 0.979301)"/>
</clipPath>
</defs>
</svg>
