<svg width="344" height="72" viewBox="0 0 344 72" fill="none" xmlns="http://www.w3.org/2000/svg">
<path d="M96.0869 30.4769C96.1027 30.5854 96.0859 30.6961 96.0386 30.7949C95.9913 30.8938 95.9157 30.9763 95.8214 31.032C95.727 31.0877 95.6182 31.1142 95.5088 31.1079C95.3994 31.1016 95.2944 31.0629 95.207 30.9967C95.1197 30.9306 95.054 30.8399 95.0183 30.7363C94.9827 30.6327 94.9787 30.5208 95.0068 30.4149C95.0349 30.309 95.0939 30.2138 95.1762 30.1416C95.2586 30.0693 95.3605 30.0231 95.4692 30.009C95.6128 29.9915 95.7575 30.0305 95.8728 30.1179C95.9881 30.2052 96.0649 30.334 96.0869 30.4769Z" fill="#D7D0FF"/>
<path d="M16.1963 22.0254C16.2121 22.1339 16.1953 22.2445 16.148 22.3434C16.1007 22.4422 16.0251 22.5248 15.9307 22.5805C15.8364 22.6362 15.7276 22.6626 15.6182 22.6563C15.5088 22.6501 15.4038 22.6114 15.3164 22.5452C15.2291 22.479 15.1634 22.3884 15.1277 22.2848C15.0921 22.1812 15.088 22.0693 15.1161 21.9634C15.1442 21.8575 15.2032 21.7623 15.2856 21.69C15.3679 21.6177 15.4699 21.5716 15.5786 21.5574C15.6499 21.5475 15.7224 21.5518 15.7921 21.57C15.8617 21.5882 15.9271 21.6199 15.9845 21.6633C16.0419 21.7068 16.0901 21.7612 16.1264 21.8233C16.1628 21.8854 16.1865 21.9541 16.1963 22.0254Z" fill="#D7D0FF"/>
<path d="M80.5674 55.5839C80.5832 55.6924 80.5664 55.803 80.5191 55.9019C80.4718 56.0007 80.3962 56.0833 80.3018 56.139C80.2075 56.1947 80.0987 56.2211 79.9893 56.2148C79.8799 56.2086 79.7748 56.1699 79.6875 56.1037C79.6002 56.0375 79.5345 55.9469 79.4988 55.8433C79.4631 55.7397 79.4591 55.6278 79.4872 55.5219C79.5153 55.416 79.5743 55.3208 79.6567 55.2485C79.739 55.1762 79.841 55.1301 79.9497 55.116C80.0935 55.0972 80.2388 55.1358 80.3544 55.2234C80.47 55.3109 80.5465 55.4404 80.5674 55.5839Z" fill="#FFCF80"/>
<path d="M22.8534 13.7328L24.4164 13.2133C24.4164 13.2133 23.3494 12.6611 23.3494 10.953C23.3494 9.24487 24.8142 8.57098 24.1824 7.02197L22.4416 7.48995C22.6364 7.89637 22.7441 8.33903 22.7578 8.78954C22.7715 9.24004 22.6909 9.68844 22.5211 10.1059C22.0578 11.0934 21.6413 12.2586 22.8534 13.7328Z" fill="#525A66"/>
<path d="M5.34679 22.1238L3.80247 21.5435C3.80247 21.5435 4.27044 22.6432 3.20345 23.9676C2.13646 25.292 0.568729 24.9035 0.0820312 26.4947L1.72931 27.2341C1.83363 26.7942 2.02917 26.3811 2.30326 26.0215C2.57735 25.662 2.9239 25.364 3.32045 25.1469C4.29852 24.6742 5.35615 24.0331 5.34679 22.1238Z" fill="#525A66"/>
<path d="M95.1749 36.5373L93.6306 35.957C93.6306 35.957 94.0986 37.0568 93.0316 38.3812C91.9646 39.7055 90.3969 39.3171 89.9102 40.9082L91.5574 41.643C91.6618 41.2043 91.8569 40.7924 92.1302 40.4337C92.4034 40.0751 92.7487 39.7776 93.1439 39.5605C94.1267 39.0878 95.1843 38.4467 95.1749 36.5373Z" fill="#FFCF80"/>
<path d="M10.3342 44.685L10.5588 43.0565C10.5588 43.0565 9.59482 43.7678 8.06453 43.0097C6.53424 42.2515 6.57636 40.6417 4.91036 40.52L4.55469 42.289C5.00588 42.2942 5.45096 42.3939 5.86124 42.5818C6.27151 42.7696 6.63788 43.0413 6.9367 43.3794C7.61995 44.2264 8.48103 45.1202 10.3342 44.685Z" fill="#D7D0FF"/>
<path d="M29.0664 53.918L29.38 55.5372C29.38 55.5372 30.0632 54.5498 31.7573 54.7791C33.4514 55.0084 33.9287 56.5433 35.5432 56.1175L35.3139 54.3345C34.8849 54.4747 34.4313 54.5233 33.9823 54.4774C33.5333 54.4315 33.099 54.2919 32.7073 54.0677C31.79 53.4781 30.6856 52.9118 29.0664 53.918Z" fill="#525A66"/>
<path d="M84.4788 33.9633L82.7426 33.0273C82.7426 33.0273 81.3387 35.1473 83.0281 36.2143C83.0281 36.2096 82.6958 34.8337 84.4788 33.9633Z" fill="#525A66"/>
<path d="M83.0741 38.7932L84.8993 38.1146C84.8993 38.1146 85.0069 36.5469 83.0273 36.21C83.0273 36.21 84.2675 37.6279 83.0741 38.7932Z" fill="#525A66"/>
<path d="M7.40208 65.2992C7.37063 65.0825 7.40429 64.8614 7.49878 64.6639C7.59326 64.4664 7.74431 64.3015 7.93274 64.19C8.12116 64.0785 8.33847 64.0256 8.55705 64.0379C8.77564 64.0502 8.98563 64.1271 9.16038 64.259C9.33513 64.3909 9.46673 64.5718 9.53848 64.7786C9.61024 64.9854 9.6189 65.2089 9.56338 65.4207C9.50785 65.6325 9.39063 65.8229 9.22662 65.968C9.06261 66.113 8.85921 66.206 8.64223 66.2351C8.35371 66.2752 8.06109 66.1991 7.82859 66.0236C7.5961 65.8482 7.44269 65.5876 7.40208 65.2992Z" fill="#D7D0FF"/>
<path d="M99.6325 4.89245C99.6011 4.67579 99.6347 4.45467 99.7292 4.25718C99.8237 4.05969 99.9748 3.89474 100.163 3.78327C100.352 3.6718 100.569 3.61885 100.787 3.63114C101.006 3.64342 101.216 3.72039 101.391 3.85228C101.566 3.98416 101.697 4.16501 101.769 4.37184C101.841 4.57868 101.849 4.80217 101.794 5.01394C101.738 5.22571 101.621 5.4162 101.457 5.56122C101.293 5.70623 101.09 5.79923 100.873 5.82841C100.584 5.86717 100.292 5.79061 100.06 5.61537C99.828 5.44012 99.6743 5.18034 99.6325 4.89245Z" fill="#FFCF80"/>
<path d="M14.8396 3.11901C14.8081 2.90235 14.8418 2.68124 14.9363 2.48375C15.0308 2.28625 15.1818 2.1213 15.3702 2.00983C15.5586 1.89836 15.776 1.84541 15.9945 1.8577C16.2131 1.86999 16.4231 1.94696 16.5979 2.07884C16.7726 2.21073 16.9042 2.39157 16.976 2.5984C17.0477 2.80524 17.0564 3.02873 17.0009 3.2405C16.9453 3.45227 16.8281 3.64276 16.6641 3.78777C16.5001 3.93279 16.2967 4.0258 16.0797 4.05497C15.7914 4.09373 15.4994 4.01717 15.2672 3.84193C15.035 3.66668 14.8814 3.4069 14.8396 3.11901Z" fill="#D7D0FF"/>
<path d="M83.8395 14.7252L83.6289 16.3584C83.6289 16.3584 84.593 15.6471 86.1279 16.4052C87.6629 17.1634 87.6161 18.7685 89.2821 18.8902L89.6331 17.1212C89.1819 17.1157 88.7369 17.0159 88.3267 16.8281C87.9165 16.6403 87.5501 16.3687 87.2511 16.0309C86.5584 15.1838 85.6974 14.29 83.8395 14.7252Z" fill="#525A66"/>
<path d="M31.8457 34.7873L29.2157 35.536C29.2157 35.536 27.9615 32.2602 30.5681 31.3242C30.5681 31.3336 29.6837 33.0698 31.8457 34.7873Z" fill="#FFCF80"/>
<path d="M31.4135 27.8472L33.6738 29.3166C33.6738 29.3166 33.3415 31.4646 30.5664 31.3196C30.5664 31.3336 32.6723 29.7799 31.4135 27.8472Z" fill="#FFCF80"/>
<path d="M40.1094 16.6294L40.3948 18.5808C40.3948 18.5808 42.9313 18.4311 42.7722 16.4375C42.7628 16.4375 41.8737 17.5419 40.1094 16.6294Z" fill="#525A66"/>
<path d="M44.7866 14.8513L43.1487 13.7983C43.1487 13.7983 41.8336 14.6547 42.7509 16.4377C42.7602 16.4377 43.1487 14.5939 44.7866 14.8513Z" fill="#525A66"/>
<path d="M176.834 16.8634C176.866 17.08 176.832 17.3012 176.737 17.4987C176.643 17.6961 176.492 17.8611 176.303 17.9726C176.115 18.084 175.898 18.137 175.679 18.1247C175.461 18.1124 175.251 18.0354 175.076 17.9036C174.901 17.7717 174.769 17.5908 174.698 17.384C174.626 17.1772 174.617 16.9537 174.673 16.7419C174.728 16.5301 174.846 16.3396 175.01 16.1946C175.174 16.0496 175.377 15.9566 175.594 15.9274C175.883 15.8874 176.175 15.9635 176.408 16.1389C176.64 16.3144 176.794 16.575 176.834 16.8634Z" fill="#525A66"/>
<path d="M154.856 30.6879C154.872 30.7964 154.855 30.907 154.808 31.0059C154.761 31.1047 154.685 31.1873 154.591 31.243C154.497 31.2987 154.388 31.3251 154.278 31.3189C154.169 31.3126 154.064 31.2739 153.977 31.2077C153.889 31.1415 153.824 31.0509 153.788 30.9473C153.752 30.8437 153.748 30.7318 153.776 30.6259C153.804 30.52 153.863 30.4248 153.946 30.3525C154.028 30.2803 154.13 30.2341 154.239 30.22C154.383 30.2012 154.528 30.2398 154.643 30.3274C154.759 30.4149 154.836 30.5444 154.856 30.6879Z" fill="#525A66"/>
<path d="M167.728 59.8334C167.743 59.9418 167.727 60.0525 167.679 60.1513C167.632 60.2502 167.556 60.3327 167.462 60.3885C167.368 60.4442 167.259 60.4706 167.149 60.4643C167.04 60.458 166.935 60.4193 166.848 60.3532C166.76 60.287 166.695 60.1964 166.659 60.0927C166.623 59.9891 166.619 59.8773 166.647 59.7714C166.675 59.6654 166.734 59.5703 166.817 59.498C166.899 59.4257 167.001 59.3796 167.11 59.3654C167.253 59.3479 167.398 59.387 167.513 59.4743C167.629 59.5617 167.706 59.6904 167.728 59.8334Z" fill="#D7D0FF"/>
<path d="M337.462 30.4769C337.478 30.5854 337.461 30.6961 337.414 30.7949C337.366 30.8938 337.291 30.9763 337.196 31.032C337.102 31.0877 336.993 31.1142 336.884 31.1079C336.774 31.1016 336.669 31.0629 336.582 30.9967C336.495 30.9306 336.429 30.8399 336.393 30.7363C336.358 30.6327 336.354 30.5208 336.382 30.4149C336.41 30.309 336.469 30.2138 336.551 30.1416C336.634 30.0693 336.736 30.0231 336.844 30.009C336.988 29.9915 337.133 30.0305 337.248 30.1179C337.363 30.2052 337.44 30.334 337.462 30.4769Z" fill="#D7D0FF"/>
<path d="M130.536 32.9106C130.552 33.0189 130.535 33.1293 130.488 33.2279C130.441 33.3266 130.365 33.409 130.271 33.4647C130.177 33.5205 130.069 33.547 129.959 33.541C129.85 33.535 129.745 33.4967 129.658 33.431C129.57 33.3653 129.505 33.2751 129.468 33.1719C129.432 33.0687 129.428 32.957 129.455 32.8512C129.483 32.7453 129.541 32.65 129.622 32.5773C129.704 32.5045 129.806 32.4577 129.914 32.4427C130.058 32.4239 130.204 32.4623 130.32 32.5498C130.437 32.6372 130.514 32.7668 130.536 32.9106Z" fill="#D7D0FF"/>
<path d="M257.571 22.0254C257.587 22.1339 257.57 22.2445 257.523 22.3434C257.476 22.4422 257.4 22.5248 257.306 22.5805C257.211 22.6362 257.103 22.6626 256.993 22.6563C256.884 22.6501 256.779 22.6114 256.691 22.5452C256.604 22.479 256.538 22.3884 256.503 22.2848C256.467 22.1812 256.463 22.0693 256.491 21.9634C256.519 21.8575 256.578 21.7623 256.661 21.69C256.743 21.6177 256.845 21.5716 256.954 21.5574C257.025 21.5475 257.097 21.5518 257.167 21.57C257.237 21.5882 257.302 21.6199 257.359 21.6633C257.417 21.7068 257.465 21.7612 257.501 21.8233C257.538 21.8854 257.562 21.9541 257.571 22.0254Z" fill="#D7D0FF"/>
<path d="M204.364 19.124C204.38 19.2324 204.363 19.3431 204.316 19.4419C204.269 19.5408 204.193 19.6233 204.099 19.679C204.004 19.7348 203.896 19.7612 203.786 19.7549C203.677 19.7486 203.572 19.7099 203.484 19.6437C203.397 19.5776 203.331 19.4869 203.296 19.3833C203.26 19.2797 203.256 19.1678 203.284 19.0619C203.312 18.956 203.371 18.8609 203.454 18.7886C203.536 18.7163 203.638 18.6701 203.747 18.656C203.89 18.6373 204.036 18.6759 204.151 18.7634C204.267 18.851 204.343 18.9805 204.364 19.124Z" fill="#D7D0FF"/>
<path d="M321.942 55.5839C321.958 55.6924 321.941 55.803 321.894 55.9019C321.847 56.0007 321.771 56.0833 321.677 56.139C321.582 56.1947 321.474 56.2211 321.364 56.2148C321.255 56.2086 321.15 56.1699 321.062 56.1037C320.975 56.0375 320.909 55.9469 320.874 55.8433C320.838 55.7397 320.834 55.6278 320.862 55.5219C320.89 55.416 320.949 55.3208 321.032 55.2485C321.114 55.1762 321.216 55.1301 321.325 55.116C321.468 55.0972 321.614 55.1358 321.729 55.2234C321.845 55.3109 321.922 55.4404 321.942 55.5839Z" fill="#FFCF80"/>
<path d="M175.356 50.9418L176.919 50.4223C176.919 50.4223 175.852 49.8701 175.852 48.162C175.852 46.4539 177.316 45.78 176.685 44.231L174.944 44.6989C175.139 45.1054 175.246 45.548 175.26 45.9985C175.274 46.449 175.193 46.8974 175.023 47.3149C174.565 48.3024 174.144 49.4676 175.356 50.9418Z" fill="#525A66"/>
<path d="M264.228 13.7328L265.791 13.2133C265.791 13.2133 264.724 12.6611 264.724 10.953C264.724 9.24487 266.189 8.57098 265.557 7.02197L263.817 7.48995C264.011 7.89637 264.119 8.33903 264.133 8.78954C264.147 9.24004 264.066 9.68844 263.896 10.1059C263.433 11.0934 263.016 12.2586 264.228 13.7328Z" fill="#525A66"/>
<path d="M246.722 22.1238L245.177 21.5435C245.177 21.5435 245.645 22.6432 244.578 23.9676C243.511 25.292 241.944 24.9035 241.457 26.4947L243.104 27.2341C243.209 26.7942 243.404 26.3811 243.678 26.0215C243.952 25.662 244.299 25.364 244.695 25.1469C245.674 24.6742 246.731 24.0331 246.722 22.1238Z" fill="#525A66"/>
<path d="M336.55 36.5373L335.006 35.957C335.006 35.957 335.474 37.0568 334.407 38.3812C333.34 39.7055 331.772 39.3171 331.285 40.9082L332.932 41.643C333.037 41.2043 333.232 40.7924 333.505 40.4337C333.778 40.0751 334.124 39.7776 334.519 39.5605C335.502 39.0878 336.559 38.4467 336.55 36.5373Z" fill="#FFCF80"/>
<path d="M192.225 34.6655L192.449 33.0323C192.449 33.0323 191.485 33.7436 189.95 32.9855C188.415 32.2273 188.462 30.6175 186.796 30.5005L186.445 32.2648C186.896 32.2703 187.341 32.3702 187.752 32.5579C188.162 32.7457 188.528 33.0173 188.827 33.3552C189.506 34.2069 190.367 35.0773 192.225 34.6655Z" fill="#D7D0FF"/>
<path d="M251.709 44.685L251.934 43.0565C251.934 43.0565 250.97 43.7678 249.44 43.0097C247.909 42.2515 247.951 40.6417 246.285 40.52L245.93 42.289C246.381 42.2942 246.826 42.3939 247.236 42.5818C247.647 42.7696 248.013 43.0413 248.312 43.3794C248.995 44.2264 249.856 45.1202 251.709 44.685Z" fill="#D7D0FF"/>
<path d="M270.441 53.918L270.755 55.5372C270.755 55.5372 271.438 54.5498 273.132 54.7791C274.826 55.0084 275.304 56.5433 276.918 56.1175L276.689 54.3345C276.26 54.4747 275.806 54.5233 275.357 54.4774C274.908 54.4315 274.474 54.2919 274.082 54.0677C273.165 53.4781 272.061 52.9118 270.441 53.918Z" fill="#525A66"/>
<path d="M188.098 9.72212L190.732 8.97803C190.732 8.97803 191.982 12.2539 189.375 13.1898C189.375 13.1898 190.264 11.4396 188.098 9.72212Z" fill="#FFCF80"/>
<path d="M188.534 16.6625L186.273 15.1931C186.273 15.1931 186.606 13.0451 189.376 13.1901C189.376 13.1901 187.27 14.7298 188.534 16.6625Z" fill="#FFCF80"/>
<path d="M166.206 29.4613L164.489 28.5254C164.489 28.5254 163.085 30.6453 164.774 31.7123C164.755 31.6889 164.409 30.3131 166.206 29.4613Z" fill="#FFCF80"/>
<path d="M164.805 34.2722L166.63 33.5936C166.63 33.5936 166.737 32.0259 164.758 31.689C164.758 31.689 165.998 33.1069 164.805 34.2722Z" fill="#FFCF80"/>
<path d="M325.854 33.9633L324.118 33.0273C324.118 33.0273 322.714 35.1473 324.403 36.2143C324.403 36.2096 324.071 34.8337 325.854 33.9633Z" fill="#525A66"/>
<path d="M324.449 38.7932L326.274 38.1146C326.274 38.1146 326.382 36.5469 324.402 36.21C324.402 36.21 325.642 37.6279 324.449 38.7932Z" fill="#525A66"/>
<path d="M248.777 65.2992C248.746 65.0825 248.779 64.8614 248.874 64.6639C248.968 64.4664 249.119 64.3015 249.308 64.19C249.496 64.0785 249.713 64.0256 249.932 64.0379C250.151 64.0502 250.361 64.1271 250.535 64.259C250.71 64.3909 250.842 64.5718 250.913 64.7786C250.985 64.9854 250.994 65.2089 250.938 65.4207C250.883 65.6325 250.766 65.8229 250.602 65.968C250.438 66.113 250.234 66.206 250.017 66.2351C249.729 66.2752 249.436 66.1991 249.204 66.0236C248.971 65.8482 248.818 65.5876 248.777 65.2992Z" fill="#D7D0FF"/>
<path d="M341.008 4.89245C340.976 4.67579 341.01 4.45467 341.104 4.25718C341.199 4.05969 341.35 3.89474 341.538 3.78327C341.727 3.6718 341.944 3.61885 342.162 3.63114C342.381 3.64342 342.591 3.72039 342.766 3.85228C342.941 3.98416 343.072 4.16501 343.144 4.37184C343.216 4.57868 343.224 4.80217 343.169 5.01394C343.113 5.22571 342.996 5.4162 342.832 5.56122C342.668 5.70623 342.465 5.79923 342.248 5.82841C341.959 5.86717 341.667 5.79061 341.435 5.61537C341.203 5.44012 341.049 5.18034 341.008 4.89245Z" fill="#FFCF80"/>
<path d="M256.215 3.11901C256.183 2.90235 256.217 2.68124 256.311 2.48375C256.406 2.28625 256.557 2.1213 256.745 2.00983C256.934 1.89836 257.151 1.84541 257.37 1.8577C257.588 1.86999 257.798 1.94696 257.973 2.07884C258.148 2.21073 258.279 2.39157 258.351 2.5984C258.423 2.80524 258.431 3.02873 258.376 3.2405C258.32 3.45227 258.203 3.64276 258.039 3.78777C257.875 3.93279 257.672 4.0258 257.455 4.05497C257.166 4.09373 256.874 4.01717 256.642 3.84193C256.41 3.66668 256.256 3.4069 256.215 3.11901Z" fill="#D7D0FF"/>
<path d="M325.218 14.7252L325.008 16.3584C325.008 16.3584 325.972 15.6471 327.507 16.4052C329.042 17.1634 328.995 18.7685 330.661 18.8902L331.012 17.1212C330.561 17.1157 330.116 17.0159 329.706 16.8281C329.295 16.6403 328.929 16.3687 328.63 16.0309C327.937 15.1838 327.076 14.29 325.218 14.7252Z" fill="#525A66"/>
<path d="M156.885 55.2002L154.255 55.9443C154.255 55.9443 153.001 52.6685 155.607 51.7325C155.598 51.7185 154.723 53.4687 156.885 55.2002Z" fill="#D7D0FF"/>
<path d="M156.453 48.2461L158.713 49.7202C158.713 49.7202 158.381 51.8636 155.605 51.7185C155.596 51.7185 157.711 50.1788 156.453 48.2461Z" fill="#D7D0FF"/>
<path d="M273.221 34.7873L270.591 35.536C270.591 35.536 269.336 32.2602 271.943 31.3242C271.943 31.3336 271.059 33.0698 273.221 34.7873Z" fill="#FFCF80"/>
<path d="M272.788 27.8472L275.049 29.3166C275.049 29.3166 274.717 31.4646 271.941 31.3196C271.941 31.3336 274.047 29.7799 272.788 27.8472Z" fill="#FFCF80"/>
<path d="M188.516 71.1912L190.252 72.1272C190.252 72.1272 191.656 70.0072 189.966 68.9355C189.966 68.9449 190.317 70.3208 188.516 71.1912Z" fill="#D7D0FF"/>
<path d="M189.92 66.3662L188.095 67.0448C188.095 67.0448 187.992 68.6078 189.967 68.9448C189.967 68.9448 188.726 67.5268 189.92 66.3662Z" fill="#D7D0FF"/>
<path d="M102.927 18.6982C102.943 18.8066 102.926 18.9173 102.878 19.0161C102.831 19.115 102.756 19.1975 102.661 19.2533C102.567 19.309 102.458 19.3354 102.349 19.3291C102.239 19.3228 102.134 19.2841 102.047 19.218C101.96 19.1518 101.894 19.0611 101.858 18.9575C101.823 18.8539 101.818 18.742 101.847 18.6361C101.875 18.5302 101.934 18.4351 102.016 18.3628C102.098 18.2905 102.2 18.2444 102.309 18.2302C102.453 18.2115 102.598 18.2501 102.714 18.3376C102.829 18.4252 102.906 18.5547 102.927 18.6982Z" fill="#D7D0FF"/>
<path d="M107.326 37.7075C107.358 37.9242 107.324 38.1453 107.23 38.3428C107.135 38.5403 106.984 38.7052 106.796 38.8167C106.607 38.9282 106.39 38.9811 106.171 38.9688C105.953 38.9566 105.743 38.8796 105.568 38.7477C105.393 38.6158 105.262 38.435 105.19 38.2281C105.118 38.0213 105.109 37.7978 105.165 37.586C105.221 37.3743 105.338 37.1838 105.502 37.0388C105.666 36.8937 105.869 36.8007 106.086 36.7716C106.374 36.7328 106.666 36.8094 106.899 36.9846C107.131 37.1599 107.285 37.4196 107.326 37.7075Z" fill="#525A66"/>
<path d="M112.783 14.912L114.346 14.3925C114.346 14.3925 113.279 13.8403 113.279 12.1322C113.279 10.4241 114.744 9.75018 114.112 8.20117L112.371 8.66915C112.566 9.07557 112.674 9.51823 112.688 9.96874C112.701 10.4192 112.621 10.8676 112.451 11.2851C111.988 12.2726 111.571 13.4378 112.783 14.912Z" fill="#525A66"/>
<path d="M113.362 42.0969L111.818 41.5166C111.818 41.5166 112.286 42.6164 111.219 43.9407C110.152 45.2651 108.584 44.8767 108.098 46.4678L109.745 47.2025C109.85 46.7634 110.045 46.3511 110.319 45.9923C110.593 45.6336 110.94 45.3364 111.336 45.12C112.314 44.6521 113.372 44.0109 113.362 42.0969Z" fill="#FFCF80"/>
<path d="M105.918 5.27673C105.886 5.06007 105.92 4.83895 106.014 4.64146C106.109 4.44397 106.26 4.27902 106.448 4.16755C106.637 4.05608 106.854 4.00313 107.073 4.01541C107.291 4.0277 107.501 4.10467 107.676 4.23656C107.851 4.36844 107.982 4.54928 108.054 4.75612C108.126 4.96295 108.135 5.18645 108.079 5.39822C108.023 5.60999 107.906 5.80047 107.742 5.94549C107.578 6.0905 107.375 6.18351 107.158 6.21268C106.87 6.25145 106.578 6.17489 106.345 5.99964C106.113 5.8244 105.959 5.56462 105.918 5.27673Z" fill="#FFCF80"/>
<path d="M281.484 16.6294L281.77 18.5808C281.77 18.5808 284.306 18.4311 284.147 16.4375C284.138 16.4375 283.249 17.5419 281.484 16.6294Z" fill="#525A66"/>
<path d="M286.162 14.8513L284.524 13.7983C284.524 13.7983 283.209 14.6547 284.126 16.4377C284.135 16.4377 284.524 14.5939 286.162 14.8513Z" fill="#525A66"/>
</svg>
