<svg width="216" height="216" viewBox="0 0 216 216" fill="none" xmlns="http://www.w3.org/2000/svg">
<circle opacity="0.05" cx="108" cy="108" r="108" fill="#5EC476"/>
<circle opacity="0.15" cx="108" cy="108" r="81" fill="#5EC476"/>
<circle cx="108" cy="108" r="36" fill="#5EC476"/>
<mask id="mask0_2935_49170" style="mask-type:alpha" maskUnits="userSpaceOnUse" x="99" y="101" width="18" height="14">
<path d="M104.795 111.875L101.325 108.405C101.138 108.218 100.885 108.112 100.62 108.112C100.356 108.112 100.102 108.218 99.9151 108.405C99.5251 108.795 99.5251 109.425 99.9151 109.815L104.095 113.995C104.485 114.385 105.115 114.385 105.505 113.995L116.085 103.415C116.475 103.025 116.475 102.395 116.085 102.005C115.898 101.818 115.645 101.712 115.38 101.712C115.116 101.712 114.862 101.818 114.675 102.005L104.795 111.875Z" fill="black"/>
</mask>
<g mask="url(#mask0_2935_49170)">
<rect x="96" y="96" width="24" height="24" fill="white"/>
</g>
</svg>
